<svg role="img" viewBox="0 0 24 24" xmlns="http://www.w3.org/2000/svg" id="Spigotmc--Streamline-Simple-Icons" height="24" width="24">
    <style>
        path {
        fill: black;
        }
        @media (prefers-color-scheme: dark) {
        path { fill: white; }
        }
    </style>
  <title>SpigotMC</title>
  <path d="M12.644 2.44c-0.179 0.033 -0.456 0.182 -0.603 0.331 -0.245 0.2 -0.588 0.232 -2.023 0.133l-1.713 -0.116 0.049 0.713 0.049 0.713h0.652c0.36 -0.016 1.207 -0.05 1.876 -0.083l1.224 -0.083v3.317l-0.44 0.05c-0.425 0.05 -0.457 0.1 -0.457 0.862 0 0.713 -0.05 0.813 -0.36 0.863 -0.26 0.033 -0.39 0.182 -0.44 0.464 -0.016 0.232 -0.114 0.448 -0.18 0.497 -0.08 0.05 -0.228 0.597 -0.326 1.211 -0.228 1.526 -0.375 1.708 -1.37 1.84 -1.436 0.167 -2.056 0.134 -2.056 -0.148 0 -0.2 -0.244 -0.25 -1.158 -0.25 -1.012 0 -1.158 -0.032 -1.24 -0.33 -0.065 -0.25 -0.228 -0.333 -0.62 -0.333s-0.555 0.083 -0.62 0.332c-0.082 0.299 -0.228 0.332 -1.224 0.332 -1.011 0 -1.158 0.033 -1.256 0.332 -0.049 0.182 -0.18 0.331 -0.26 0.331 -0.082 0 -0.148 0.863 -0.148 1.99 0 1.609 0.05 1.99 0.229 1.99 0.13 0 0.293 0.15 0.342 0.332 0.082 0.282 0.245 0.332 1.175 0.332 0.914 0 1.077 0.05 1.142 0.331 0.13 0.465 1.11 0.465 1.24 0 0.065 -0.282 0.228 -0.331 1.158 -0.331 0.849 0 1.077 -0.05 1.077 -0.25 0 -0.397 2.121 -0.33 3.426 0.117 1.583 0.53 5.14 0.53 6.82 0 0.653 -0.199 1.256 -0.332 1.338 -0.282 0.359 0.232 0.163 0.896 -0.343 1.178 -0.587 0.298 -0.587 0.563 0 1.956l0.343 0.797 1.599 -0.067c1.73 -0.083 2.822 -0.48 3.915 -1.41l0.539 -0.464 -0.31 -0.912c-0.327 -0.962 -0.734 -1.327 -1.518 -1.327 -0.342 0 -0.473 -0.149 -0.766 -0.796 -0.506 -1.144 -1.224 -1.758 -2.758 -2.355 -0.799 -0.315 -1.582 -0.746 -1.99 -1.127 -0.604 -0.548 -0.685 -0.73 -0.832 -1.775 -0.098 -0.63 -0.245 -1.194 -0.326 -1.244 -0.066 -0.05 -0.164 -0.265 -0.18 -0.497 -0.049 -0.282 -0.18 -0.431 -0.424 -0.464 -0.326 -0.05 -0.375 -0.15 -0.375 -0.863 0 -0.763 -0.033 -0.812 -0.44 -0.862 -0.458 -0.05 -0.458 -0.05 -0.507 -1.526 -0.032 -0.929 0.017 -1.542 0.13 -1.658 0.115 -0.116 0.93 -0.183 2.09 -0.183h1.908l0.05 -0.564c0.032 -0.298 -0.017 -0.63 -0.099 -0.713 -0.098 -0.1 -0.816 -0.083 -1.909 0.05 -1.256 0.15 -1.778 0.15 -1.86 0.017 -0.146 -0.25 -0.848 -0.481 -1.24 -0.398z" fill="#ffffff" stroke-width="1"></path>
</svg>