<svg xmlns="http://www.w3.org/2000/svg" fill="none" viewBox="0 0 24 24" >
    <style>
        path {
        fill: black;
        }
        @media (prefers-color-scheme: dark) {
        path { fill: white; }
        }
    </style>
    <path fill="#fff" d="M23.987 1.004 20.56 21.576a.86.86 0 0 1-.844.71.9.9 0 0 1-.322-.068l-6.067-2.477-3.24 3.95a.83.83 0 0 1-.657.309.8.8 0 0 1-.295-.054.85.85 0 0 1-.562-.803V18.47L20.143 4.286 5.827 16.674l-5.29-2.17A.85.85 0 0 1 0 13.768a.87.87 0 0 1 .429-.79L22.715.12a.83.83 0 0 1 .428-.12.853.853 0 0 1 .844 1.004"/>
</svg>
